<svg width="250" height="52" viewBox="0 0 250 52" fill="none" xmlns="http://www.w3.org/2000/svg">
<g clip-path="url(#clip0_211_2)">
<path d="M48.7655 12.4301H59.3796C67.4426 12.4301 72.3824 16.2851 72.3824 23.5851C72.3824 30.8851 67.4113 34.7401 59.3796 34.7401H48.7655V12.4301ZM59.3796 30.0851C64.288 30.0851 67.0298 27.8529 67.0298 23.5822C67.0298 19.3115 64.2254 17.0822 59.3796 17.0822H54.2491V30.0851H59.3796Z" fill="#0B6740"/>
<path d="M76.3969 12.4301H98.1318V17.0822H81.8776V21.2248H97.8442V25.5923H81.8776V30.0851H98.1318V34.7372H76.3969V12.4301Z" fill="#0B6740"/>
<path d="M100.78 12.4301H107.314L116.843 31.2979L126.341 12.4301H132.875L121.117 34.7401H112.544L100.782 12.4301H100.78Z" fill="#0B6740"/>
<path d="M135.517 12.4301H140.998V20.812H155.054V12.4301H160.535V34.7401H155.054V25.467H140.998V34.7401H135.517V12.4301Z" fill="#0B6740"/>
<path d="M165.893 23.01V12.4301H171.374V23.9666C171.374 28.2999 173.606 30.4352 177.811 30.4352C182.016 30.4352 184.28 28.2999 184.28 23.9666V12.4301H189.761V23.01C189.761 32.5079 185.108 35.2469 177.808 35.2469C170.508 35.2469 165.89 32.5051 165.89 23.01H165.893Z" fill="#0B6740"/>
<path d="M195.119 12.4301H199.708L215.356 26.6116V12.4301H220.837V34.7401H216.216L200.6 20.5586V34.7401H195.119V12.4301Z" fill="#0B6740"/>
<path d="M234.13 17.0822H223.772V12.4301H250.003V17.0822H239.614V34.7372H234.133V17.0822H234.13Z" fill="#0B6740"/>
</g>
<path d="M41.1153 45.8837L34.6523 43.8708L31.4635 42.8772C30.8514 42.6864 30.3389 42.2593 30.0428 41.6928L27.711 37.2541L20.5591 23.6306L13.4042 37.2541L11.0753 41.6928C10.7764 42.2622 10.2667 42.6864 9.65174 42.8772L6.46296 43.8708L0 45.8837L4.45005 37.4078L5.77966 34.8796L20.5591 6.7301L35.3356 34.8796L36.6652 37.4078L41.1153 45.8837Z" fill="#0B6740"/>
<path d="M26.3615 43.0367L24.3457 48.9758C24.1208 49.5168 23.5941 49.867 23.0104 49.867H18.1077C17.524 49.867 16.9973 49.5139 16.7724 48.9758L14.7566 43.0367C14.8591 42.7321 14.9901 42.4303 15.1466 42.1313L16.7581 39.065L18.3013 36.1239L20.559 31.8219L22.8168 36.1239L24.3599 39.0678C24.3599 39.0678 25.197 40.6594 25.9714 42.1342C26.1251 42.4303 26.2561 42.7321 26.3586 43.0367H26.3615Z" fill="#0B6740"/>
<path d="M104.808 48.548C104.388 48.548 104.016 48.4611 103.694 48.2873C103.371 48.1135 103.118 47.8705 102.934 47.5582C102.753 47.2433 102.662 46.8743 102.662 46.4512V42.9979L103.343 42.9941V46.3945C103.343 46.6514 103.385 46.8756 103.471 47.067C103.559 47.2559 103.675 47.4133 103.819 47.5393C103.962 47.6652 104.12 47.7597 104.291 47.8226C104.465 47.8831 104.637 47.9133 104.808 47.9133C104.982 47.9133 105.156 47.8818 105.33 47.8189C105.504 47.7559 105.661 47.6627 105.802 47.5393C105.946 47.4133 106.06 47.2546 106.146 47.0632C106.232 46.8718 106.274 46.6489 106.274 46.3945V42.9941H106.954V46.4512C106.954 46.8718 106.863 47.2395 106.679 47.5544C106.497 47.8692 106.245 48.1135 105.923 48.2873C105.601 48.4611 105.229 48.548 104.808 48.548ZM108.768 48.4347V42.9941H109.448L112.286 47.2446V42.9941H112.966V48.4347H112.286L109.448 44.1805V48.4347H108.768ZM114.853 48.4347V42.9941H115.526V47.7962H118.05V48.4347H114.853ZM119.444 48.4347V42.9941H122.882V43.6326H120.117V45.3366H122.429V45.9751H120.117V47.7962H122.882V48.4347H119.444ZM124.168 48.4347L125.99 42.9941H126.927L128.748 48.4347H128.049L126.345 43.3871H126.556L124.867 48.4347H124.168ZM125.045 47.1615V46.5305H127.871V47.1615H125.045ZM131.963 48.548C131.577 48.548 131.23 48.4825 130.92 48.3516C130.613 48.2206 130.358 48.0342 130.157 47.7924C129.958 47.5481 129.828 47.2597 129.768 46.9272L130.463 46.8176C130.551 47.1602 130.733 47.4284 131.011 47.6224C131.29 47.8138 131.619 47.9095 131.997 47.9095C132.241 47.9095 132.461 47.8717 132.658 47.7962C132.857 47.7181 133.014 47.6073 133.13 47.4637C133.246 47.3201 133.304 47.1501 133.304 46.9537C133.304 46.8328 133.282 46.7295 133.24 46.6438C133.199 46.5557 133.143 46.4814 133.07 46.4209C132.999 46.358 132.919 46.3051 132.828 46.2622C132.737 46.2194 132.643 46.1842 132.544 46.1565L131.158 45.7446C131.007 45.6993 130.861 45.6426 130.72 45.5746C130.579 45.5041 130.453 45.4172 130.342 45.3139C130.231 45.2081 130.143 45.0822 130.077 44.9361C130.012 44.7875 129.979 44.6124 129.979 44.4109C129.979 44.0885 130.062 43.814 130.228 43.5873C130.397 43.3581 130.625 43.183 130.912 43.0621C131.199 42.9412 131.523 42.882 131.883 42.8846C132.249 42.8871 132.575 42.9526 132.862 43.081C133.152 43.207 133.391 43.3883 133.58 43.6251C133.771 43.8619 133.9 44.1452 133.965 44.4752L133.251 44.5999C133.213 44.3782 133.129 44.188 132.998 44.0294C132.869 43.8681 132.708 43.7447 132.514 43.6591C132.32 43.5709 132.107 43.5256 131.876 43.5231C131.654 43.5206 131.454 43.5558 131.275 43.6289C131.096 43.7019 130.954 43.8039 130.848 43.9349C130.742 44.0634 130.689 44.212 130.689 44.3807C130.689 44.547 130.737 44.6817 130.833 44.785C130.929 44.8857 131.046 44.9663 131.184 45.0268C131.325 45.0847 131.463 45.1326 131.596 45.1704L132.631 45.4688C132.75 45.5016 132.886 45.5469 133.039 45.6048C133.196 45.6628 133.347 45.7446 133.493 45.8504C133.639 45.9537 133.76 46.0922 133.856 46.266C133.951 46.4373 133.999 46.6539 133.999 46.9159C133.999 47.1778 133.946 47.4108 133.84 47.6148C133.737 47.8189 133.592 47.9901 133.406 48.1287C133.22 48.2647 133.003 48.3679 132.756 48.4385C132.509 48.5115 132.245 48.548 131.963 48.548ZM135.547 48.4347V42.9941H136.22V45.3933H139.084V42.9941H139.756V48.4347H139.084V46.0318H136.22V48.4347H135.547ZM143.84 48.4347V42.9941H147.278V43.6326H144.513V45.3366H146.825V45.9751H144.513V47.7962H147.278V48.4347H143.84ZM148.942 48.4347V42.9941H149.622L152.46 47.2446V42.9941H153.14V48.4347H152.46L149.622 44.1805V48.4347H148.942ZM154.952 48.4347V42.9941H156.629C156.685 42.9941 156.782 42.9954 156.92 42.9979C157.059 43.0004 157.191 43.0105 157.317 43.0281C157.737 43.0836 158.089 43.2372 158.371 43.4891C158.656 43.7384 158.87 44.0558 159.013 44.4412C159.157 44.8265 159.229 45.251 159.229 45.7144C159.229 46.1779 159.157 46.6023 159.013 46.9877C158.87 47.373 158.656 47.6917 158.371 47.9435C158.089 48.1929 157.737 48.3453 157.317 48.4007C157.191 48.4158 157.057 48.4259 156.916 48.4309C156.778 48.4334 156.682 48.4347 156.629 48.4347H154.952ZM155.643 47.7924H156.629C156.725 47.7924 156.832 47.7899 156.95 47.7848C157.069 47.7773 157.172 47.766 157.26 47.7508C157.557 47.6954 157.798 47.5708 157.982 47.3768C158.166 47.1829 158.3 46.9411 158.386 46.6514C158.472 46.3617 158.514 46.0494 158.514 45.7144C158.514 45.3719 158.47 45.0558 158.382 44.7661C158.297 44.4764 158.162 44.2359 157.978 44.0445C157.794 43.853 157.555 43.7309 157.26 43.678C157.172 43.6604 157.067 43.649 156.947 43.644C156.826 43.6389 156.72 43.6364 156.629 43.6364H155.643V47.7924ZM160.926 48.4347V42.9941H161.599V47.7962H164.123V48.4347H160.926ZM165.517 48.4347V42.9941H168.955V43.6326H166.19V45.3366H168.502V45.9751H166.19V47.7962H168.955V48.4347H165.517ZM172.395 48.548C172.01 48.548 171.662 48.4825 171.352 48.3516C171.045 48.2206 170.79 48.0342 170.589 47.7924C170.39 47.5481 170.26 47.2597 170.2 46.9272L170.895 46.8176C170.983 47.1602 171.166 47.4284 171.443 47.6224C171.722 47.8138 172.051 47.9095 172.429 47.9095C172.673 47.9095 172.894 47.8717 173.09 47.7962C173.289 47.7181 173.447 47.6073 173.562 47.4637C173.678 47.3201 173.736 47.1501 173.736 46.9537C173.736 46.8328 173.715 46.7295 173.672 46.6438C173.632 46.5557 173.575 46.4814 173.502 46.4209C173.431 46.358 173.351 46.3051 173.26 46.2622C173.169 46.2194 173.075 46.1842 172.977 46.1565L171.59 45.7446C171.439 45.6993 171.293 45.6426 171.152 45.5746C171.011 45.5041 170.885 45.4172 170.774 45.3139C170.663 45.2081 170.575 45.0822 170.51 44.9361C170.444 44.7875 170.411 44.6124 170.411 44.4109C170.411 44.0885 170.495 43.814 170.661 43.5873C170.83 43.3581 171.057 43.183 171.345 43.0621C171.632 42.9412 171.955 42.882 172.316 42.8846C172.681 42.8871 173.007 42.9526 173.294 43.081C173.584 43.207 173.823 43.3883 174.012 43.6251C174.203 43.8619 174.332 44.1452 174.397 44.4752L173.683 44.5999C173.646 44.3782 173.561 44.188 173.43 44.0294C173.302 43.8681 173.14 43.7447 172.947 43.6591C172.753 43.5709 172.54 43.5256 172.308 43.5231C172.086 43.5206 171.886 43.5558 171.707 43.6289C171.528 43.7019 171.386 43.8039 171.28 43.9349C171.175 44.0634 171.122 44.212 171.122 44.3807C171.122 44.547 171.17 44.6817 171.265 44.785C171.361 44.8857 171.478 44.9663 171.617 45.0268C171.758 45.0847 171.895 45.1326 172.028 45.1704L173.064 45.4688C173.182 45.5016 173.318 45.5469 173.472 45.6048C173.628 45.6628 173.779 45.7446 173.925 45.8504C174.071 45.9537 174.192 46.0922 174.288 46.266C174.384 46.4373 174.431 46.6539 174.431 46.9159C174.431 47.1778 174.378 47.4108 174.273 47.6148C174.169 47.8189 174.025 47.9901 173.838 48.1287C173.652 48.2647 173.435 48.3679 173.188 48.4385C172.942 48.5115 172.677 48.548 172.395 48.548ZM178.021 48.548C177.635 48.548 177.288 48.4825 176.978 48.3516C176.671 48.2206 176.416 48.0342 176.215 47.7924C176.016 47.5481 175.886 47.2597 175.826 46.9272L176.521 46.8176C176.609 47.1602 176.792 47.4284 177.069 47.6224C177.348 47.8138 177.677 47.9095 178.055 47.9095C178.299 47.9095 178.52 47.8717 178.716 47.7962C178.915 47.7181 179.072 47.6073 179.188 47.4637C179.304 47.3201 179.362 47.1501 179.362 46.9537C179.362 46.8328 179.341 46.7295 179.298 46.6438C179.258 46.5557 179.201 46.4814 179.128 46.4209C179.057 46.358 178.977 46.3051 178.886 46.2622C178.795 46.2194 178.701 46.1842 178.603 46.1565L177.216 45.7446C177.065 45.6993 176.919 45.6426 176.778 45.5746C176.637 45.5041 176.511 45.4172 176.4 45.3139C176.289 45.2081 176.201 45.0822 176.136 44.9361C176.07 44.7875 176.037 44.6124 176.037 44.4109C176.037 44.0885 176.12 43.814 176.287 43.5873C176.455 43.3581 176.683 43.183 176.971 43.0621C177.258 42.9412 177.581 42.882 177.942 42.8846C178.307 42.8871 178.633 42.9526 178.92 43.081C179.21 43.207 179.449 43.3883 179.638 43.6251C179.829 43.8619 179.958 44.1452 180.023 44.4752L179.309 44.5999C179.271 44.3782 179.187 44.188 179.056 44.0294C178.928 43.8681 178.766 43.7447 178.572 43.6591C178.379 43.5709 178.166 43.5256 177.934 43.5231C177.712 43.5206 177.512 43.5558 177.333 43.6289C177.154 43.7019 177.012 43.8039 176.906 43.9349C176.801 44.0634 176.748 44.212 176.748 44.3807C176.748 44.547 176.795 44.6817 176.891 44.785C176.987 44.8857 177.104 44.9663 177.243 45.0268C177.384 45.0847 177.521 45.1326 177.654 45.1704L178.69 45.4688C178.808 45.5016 178.944 45.5469 179.098 45.6048C179.254 45.6628 179.405 45.7446 179.551 45.8504C179.697 45.9537 179.818 46.0922 179.914 46.266C180.009 46.4373 180.057 46.6539 180.057 46.9159C180.057 47.1778 180.004 47.4108 179.899 47.6148C179.795 47.8189 179.651 47.9901 179.464 48.1287C179.278 48.2647 179.061 48.3679 178.814 48.4385C178.567 48.5115 178.303 48.548 178.021 48.548ZM186.111 48.548C185.569 48.548 185.109 48.4284 184.731 48.1891C184.354 47.9498 184.065 47.6173 183.866 47.1917C183.67 46.766 183.572 46.2736 183.572 45.7144C183.572 45.1552 183.67 44.6628 183.866 44.2372C184.065 43.8115 184.354 43.479 184.731 43.2397C185.109 43.0004 185.569 42.8808 186.111 42.8808C186.655 42.8808 187.115 43.0004 187.493 43.2397C187.871 43.479 188.158 43.8115 188.355 44.2372C188.551 44.6628 188.649 45.1552 188.649 45.7144C188.649 46.2736 188.551 46.766 188.355 47.1917C188.158 47.6173 187.871 47.9498 187.493 48.1891C187.115 48.4284 186.655 48.548 186.111 48.548ZM186.111 47.9057C186.516 47.9083 186.854 47.8176 187.123 47.6337C187.395 47.4473 187.598 47.1892 187.731 46.8592C187.867 46.5292 187.935 46.1476 187.935 45.7144C187.935 45.2787 187.867 44.8971 187.731 44.5696C187.598 44.2422 187.395 43.9865 187.123 43.8027C186.854 43.6188 186.516 43.5256 186.111 43.5231C185.705 43.5206 185.367 43.6112 185.098 43.7951C184.831 43.979 184.629 44.2359 184.493 44.5659C184.357 44.8958 184.288 45.2787 184.286 45.7144C184.283 46.1476 184.35 46.528 184.486 46.8554C184.622 47.1829 184.825 47.4398 185.094 47.6262C185.366 47.81 185.705 47.9032 186.111 47.9057ZM190.164 48.4347V42.9941H192.314C192.367 42.9941 192.43 42.9967 192.503 43.0017C192.576 43.0042 192.646 43.0118 192.714 43.0244C193.009 43.0697 193.256 43.1704 193.455 43.3266C193.656 43.4828 193.807 43.6805 193.908 43.9198C194.009 44.1565 194.059 44.4198 194.059 44.7094C194.059 44.9966 194.008 45.2598 193.904 45.4991C193.804 45.7358 193.652 45.9335 193.451 46.0922C193.252 46.2484 193.006 46.3491 192.714 46.3945C192.646 46.4046 192.576 46.4121 192.503 46.4172C192.43 46.4222 192.367 46.4247 192.314 46.4247H190.836V48.4347H190.164ZM190.836 45.7862H192.291C192.339 45.7862 192.393 45.7837 192.453 45.7786C192.516 45.7736 192.576 45.7648 192.631 45.7522C192.805 45.7119 192.946 45.6388 193.054 45.5331C193.165 45.4248 193.246 45.2988 193.296 45.1552C193.346 45.0092 193.372 44.8605 193.372 44.7094C193.372 44.5583 193.346 44.4109 193.296 44.2674C193.246 44.1213 193.165 43.9941 193.054 43.8858C192.946 43.7775 192.805 43.7044 192.631 43.6666C192.576 43.6515 192.516 43.6427 192.453 43.6402C192.393 43.6352 192.339 43.6326 192.291 43.6326H190.836V45.7862ZM195.568 48.4347V42.9941H197.718C197.771 42.9941 197.834 42.9967 197.907 43.0017C197.98 43.0042 198.051 43.0118 198.119 43.0244C198.413 43.0697 198.66 43.1704 198.859 43.3266C199.061 43.4828 199.212 43.6805 199.313 43.9198C199.413 44.1565 199.464 44.4198 199.464 44.7094C199.464 44.9966 199.412 45.2598 199.309 45.4991C199.208 45.7358 199.057 45.9335 198.855 46.0922C198.656 46.2484 198.411 46.3491 198.119 46.3945C198.051 46.4046 197.98 46.4121 197.907 46.4172C197.834 46.4222 197.771 46.4247 197.718 46.4247H196.241V48.4347H195.568ZM196.241 45.7862H197.696C197.743 45.7862 197.798 45.7837 197.858 45.7786C197.921 45.7736 197.98 45.7648 198.036 45.7522C198.209 45.7119 198.35 45.6388 198.459 45.5331C198.57 45.4248 198.65 45.2988 198.701 45.1552C198.751 45.0092 198.776 44.8605 198.776 44.7094C198.776 44.5583 198.751 44.4109 198.701 44.2674C198.65 44.1213 198.57 43.9941 198.459 43.8858C198.35 43.7775 198.209 43.7044 198.036 43.6666C197.98 43.6515 197.921 43.6427 197.858 43.6402C197.798 43.6352 197.743 43.6326 197.696 43.6326H196.241V45.7862ZM203.21 48.548C202.668 48.548 202.208 48.4284 201.831 48.1891C201.453 47.9498 201.164 47.6173 200.965 47.1917C200.769 46.766 200.671 46.2736 200.671 45.7144C200.671 45.1552 200.769 44.6628 200.965 44.2372C201.164 43.8115 201.453 43.479 201.831 43.2397C202.208 43.0004 202.668 42.8808 203.21 42.8808C203.754 42.8808 204.215 43.0004 204.592 43.2397C204.97 43.479 205.257 43.8115 205.454 44.2372C205.65 44.6628 205.749 45.1552 205.749 45.7144C205.749 46.2736 205.65 46.766 205.454 47.1917C205.257 47.6173 204.97 47.9498 204.592 48.1891C204.215 48.4284 203.754 48.548 203.21 48.548ZM203.21 47.9057C203.615 47.9083 203.953 47.8176 204.222 47.6337C204.494 47.4473 204.697 47.1892 204.83 46.8592C204.966 46.5292 205.035 46.1476 205.035 45.7144C205.035 45.2787 204.966 44.8971 204.83 44.5696C204.697 44.2422 204.494 43.9865 204.222 43.8027C203.953 43.6188 203.615 43.5256 203.21 43.5231C202.804 43.5206 202.467 43.6112 202.197 43.7951C201.93 43.979 201.729 44.2359 201.593 44.5659C201.457 44.8958 201.387 45.2787 201.385 45.7144C201.382 46.1476 201.449 46.528 201.585 46.8554C201.721 47.1829 201.924 47.4398 202.193 47.6262C202.465 47.81 202.804 47.9032 203.21 47.9057ZM207.263 48.4347V42.9941H209.413C209.466 42.9941 209.529 42.9967 209.602 43.0017C209.675 43.0042 209.745 43.0118 209.813 43.0244C210.108 43.0697 210.355 43.1704 210.554 43.3266C210.755 43.4828 210.906 43.6805 211.007 43.9198C211.108 44.1565 211.158 44.4198 211.158 44.7094C211.158 45.1301 211.049 45.4953 210.83 45.8051C210.61 46.1124 210.289 46.3051 209.866 46.3831L209.609 46.4247H207.936V48.4347H207.263ZM210.501 48.4347L209.428 46.2207L210.093 46.0167L211.272 48.4347H210.501ZM207.936 45.7862H209.39C209.438 45.7862 209.492 45.7837 209.553 45.7786C209.616 45.7736 209.675 45.7648 209.73 45.7522C209.904 45.7119 210.045 45.6388 210.153 45.5331C210.264 45.4248 210.345 45.2988 210.395 45.1552C210.446 45.0092 210.471 44.8605 210.471 44.7094C210.471 44.5583 210.446 44.4109 210.395 44.2674C210.345 44.1213 210.264 43.9941 210.153 43.8858C210.045 43.7775 209.904 43.7044 209.73 43.6666C209.675 43.6515 209.616 43.6427 209.553 43.6402C209.492 43.6352 209.438 43.6326 209.39 43.6326H207.936V45.7862ZM214.261 48.4347V43.6326H212.406V42.9941H216.789V43.6326H214.934V48.4347H214.261ZM220.292 48.548C219.871 48.548 219.5 48.4611 219.177 48.2873C218.855 48.1135 218.602 47.8705 218.418 47.5582C218.237 47.2433 218.146 46.8743 218.146 46.4512V42.9979L218.826 42.9941V46.3945C218.826 46.6514 218.869 46.8756 218.954 47.067C219.043 47.2559 219.158 47.4133 219.302 47.5393C219.446 47.6652 219.603 47.7597 219.774 47.8226C219.948 47.8831 220.121 47.9133 220.292 47.9133C220.466 47.9133 220.64 47.8818 220.813 47.8189C220.987 47.7559 221.145 47.6627 221.286 47.5393C221.429 47.4133 221.544 47.2546 221.629 47.0632C221.715 46.8718 221.758 46.6489 221.758 46.3945V42.9941H222.438V46.4512C222.438 46.8718 222.346 47.2395 222.162 47.5544C221.981 47.8692 221.729 48.1135 221.406 48.2873C221.084 48.4611 220.713 48.548 220.292 48.548ZM224.251 48.4347V42.9941H224.932L227.769 47.2446V42.9941H228.449V48.4347H227.769L224.932 44.1805V48.4347H224.251ZM230.337 48.4347V42.9941H231.009V48.4347H230.337ZM234.3 48.4347V43.6326H232.445V42.9941H236.828V43.6326H234.973V48.4347H234.3ZM238.261 48.4347V42.9941H238.933V48.4347H238.261ZM240.822 48.4347V42.9941H244.26V43.6326H241.495V45.3366H243.807V45.9751H241.495V47.7962H244.26V48.4347H240.822ZM247.7 48.548C247.315 48.548 246.967 48.4825 246.657 48.3516C246.35 48.2206 246.096 48.0342 245.894 47.7924C245.695 47.5481 245.565 47.2597 245.505 46.9272L246.2 46.8176C246.288 47.1602 246.471 47.4284 246.748 47.6224C247.027 47.8138 247.356 47.9095 247.734 47.9095C247.978 47.9095 248.199 47.8717 248.395 47.7962C248.594 47.7181 248.752 47.6073 248.867 47.4637C248.983 47.3201 249.041 47.1501 249.041 46.9537C249.041 46.8328 249.02 46.7295 248.977 46.6438C248.937 46.5557 248.88 46.4814 248.807 46.4209C248.736 46.358 248.656 46.3051 248.565 46.2622C248.474 46.2194 248.38 46.1842 248.282 46.1565L246.895 45.7446C246.744 45.6993 246.598 45.6426 246.457 45.5746C246.316 45.5041 246.19 45.4172 246.079 45.3139C245.968 45.2081 245.88 45.0822 245.815 44.9361C245.749 44.7875 245.716 44.6124 245.716 44.4109C245.716 44.0885 245.8 43.814 245.966 43.5873C246.135 43.3581 246.363 43.183 246.65 43.0621C246.937 42.9412 247.26 42.882 247.621 42.8846C247.986 42.8871 248.312 42.9526 248.599 43.081C248.889 43.207 249.128 43.3883 249.317 43.6251C249.508 43.8619 249.637 44.1452 249.702 44.4752L248.988 44.5999C248.951 44.3782 248.866 44.188 248.735 44.0294C248.607 43.8681 248.446 43.7447 248.252 43.6591C248.058 43.5709 247.845 43.5256 247.613 43.5231C247.391 43.5206 247.191 43.5558 247.012 43.6289C246.834 43.7019 246.691 43.8039 246.585 43.9349C246.48 44.0634 246.427 44.212 246.427 44.3807C246.427 44.547 246.475 44.6817 246.57 44.785C246.666 44.8857 246.783 44.9663 246.922 45.0268C247.063 45.0847 247.2 45.1326 247.333 45.1704L248.369 45.4688C248.487 45.5016 248.623 45.5469 248.777 45.6048C248.933 45.6628 249.084 45.7446 249.23 45.8504C249.376 45.9537 249.497 46.0922 249.593 46.266C249.689 46.4373 249.736 46.6539 249.736 46.9159C249.736 47.1778 249.684 47.4108 249.578 47.6148C249.474 47.8189 249.33 47.9901 249.143 48.1287C248.957 48.2647 248.74 48.3679 248.493 48.4385C248.247 48.5115 247.982 48.548 247.7 48.548Z" fill="#0B6740"/>
<defs>
<clipPath id="clip0_211_2">
<rect width="249.997" height="43.1339" fill="white" transform="translate(0.00317383 0.643066)"/>
</clipPath>
</defs>
</svg>
